<svg xmlns="http://www.w3.org/2000/svg" viewBox="0 0 500 500"><g id="freepik--background-complete--inject-12"><path d="M349.91,245.35a60.84,60.84,0,0,1,14.88-6.47l3.06-14.72,24.88-.44,3.58,14.61a60.83,60.83,0,0,1,15.1,5.94L424,236l17.9,17.29-7.79,12.85A61,61,0,0,1,440.55,281l14.72,3.06.44,24.88-14.61,3.58a61,61,0,0,1-5.93,15.09l8.24,12.58-17.29,17.9-12.85-7.8a60.67,60.67,0,0,1-14.88,6.47l-3.06,14.72-24.88.44-3.58-14.61a60.61,60.61,0,0,1-15.09-5.94l-12.58,8.25-17.9-17.29,7.8-12.85a60.67,60.67,0,0,1-6.47-14.88l-14.72-3.06-.44-24.88,14.61-3.58A60.61,60.61,0,0,1,328,268l-8.24-12.58,17.28-17.9,12.85,7.8Zm13.26,33.14a26.69,26.69,0,1,0,37.75-.67A26.68,26.68,0,0,0,363.17,278.49Z" style="fill:#e0e0e0"></path><path d="M409.82,380.48a25.08,25.08,0,0,1,6.12-2.66l1.26-6.06,10.24-.18,1.47,6a25.18,25.18,0,0,1,6.21,2.45l5.17-3.39,7.37,7.11L444.45,389a25,25,0,0,1,2.66,6.13l6.06,1.26.18,10.23-6,1.48a25.08,25.08,0,0,1-2.44,6.2l3.39,5.18-7.11,7.36-5.29-3.2a25.47,25.47,0,0,1-6.12,2.66l-1.26,6.05-10.24.18-1.47-6a24.61,24.61,0,0,1-6.21-2.44l-5.18,3.39-7.36-7.11,3.21-5.29A24.75,24.75,0,0,1,398.6,409l-6.06-1.26-.18-10.23,6-1.48a25.3,25.3,0,0,1,2.44-6.21l-3.39-5.17,7.11-7.37,5.29,3.21Zm5.46,13.64a11,11,0,1,0,15.52-.28A11,11,0,0,0,415.28,394.12Z" style="fill:#e0e0e0"></path><path d="M36.64,259.59a30.8,30.8,0,0,1,7.49-3.25l1.54-7.41,12.53-.22,1.8,7.35a30.82,30.82,0,0,1,7.6,3l6.33-4.15,9,8.7L79,270.07a30.8,30.8,0,0,1,3.25,7.49l7.41,1.54.22,12.52-7.35,1.81a30.6,30.6,0,0,1-3,7.59l4.15,6.33-8.7,9-6.47-3.92a30.84,30.84,0,0,1-7.49,3.26l-1.54,7.41L47,323.33,45.18,316a30.43,30.43,0,0,1-7.6-3l-6.33,4.15-9-8.7L26.17,302a30.29,30.29,0,0,1-3.26-7.49l-7.41-1.54-.22-12.52,7.35-1.8a31.06,31.06,0,0,1,3-7.6l-4.15-6.33,8.7-9,6.47,3.92Zm6.68,16.68a13.44,13.44,0,1,0,19-.33A13.44,13.44,0,0,0,43.32,276.27Z" style="fill:#e0e0e0"></path><path d="M436.32,187.2a21.17,21.17,0,0,1,5.13-2.23l1.06-5.08,8.58-.15,1.24,5a21.48,21.48,0,0,1,5.21,2.05l4.33-2.84,6.18,6-2.69,4.44a20.79,20.79,0,0,1,2.23,5.13l5.08,1.06.15,8.58-5,1.24a20.63,20.63,0,0,1-2,5.2l2.85,4.34-6,6.18-4.44-2.69a21.17,21.17,0,0,1-5.13,2.23L452,230.74l-8.58.15-1.24-5a21.08,21.08,0,0,1-5.21-2l-4.34,2.85-6.17-6,2.69-4.43a20.86,20.86,0,0,1-2.23-5.14l-5.08-1.05-.15-8.59,5-1.23a21,21,0,0,1,2-5.21l-2.84-4.34,6-6.17,4.44,2.68Zm4.58,11.44a9.21,9.21,0,1,0,13-.23A9.2,9.2,0,0,0,440.9,198.64Z" style="fill:#e0e0e0"></path><path d="M149,80.76a54,54,0,0,1,13.07-5.68l2.69-12.93,21.85-.38,3.15,12.83A53.63,53.63,0,0,1,203,79.81l11-7.24,15.72,15.18L222.93,99a53.74,53.74,0,0,1,5.68,13.07l12.93,2.69.38,21.86-12.83,3.14a53.63,53.63,0,0,1-5.21,13.26l7.23,11-15.17,15.73L204.65,173a53.74,53.74,0,0,1-13.07,5.68l-2.69,12.93L167,192l-3.14-12.83a53.24,53.24,0,0,1-13.26-5.21l-11,7.24L123.87,166l6.84-11.29A53.57,53.57,0,0,1,125,141.63l-12.93-2.69-.38-21.85,12.83-3.15a53.24,53.24,0,0,1,5.21-13.26l-7.24-11L137.7,73.92,149,80.76Zm11.65,29.11a23.45,23.45,0,1,0,33.15-.58A23.44,23.44,0,0,0,160.64,109.87Z" style="fill:#e0e0e0"></path></g><g id="freepik--Table--inject-12"><path d="M460.14,467.77l1.24,0,3.72,0v.11c-20.82.12-108.12.2-212.61.2L98.63,468,52,467.88l-12.68-.05-3.29,0-1.13,0,1.13,0,3.29,0L52,467.67l46.63-.08,153.86-.08c104.49,0,191.79.09,212.61.21v.11l-3.72,0C460.55,467.79,460.14,467.77,460.14,467.77Z" style="fill:#263238"></path></g><g id="freepik--speech-bubble--inject-12"><circle cx="85.37" cy="139.16" r="50.7" transform="translate(-65.84 200.7) rotate(-80.62)" style="fill:#fff"></circle><path d="M136.07,139.16a4.87,4.87,0,0,1-.1-.82c0-.59-.09-1.39-.17-2.41,0-.53-.07-1.12-.11-1.77s-.21-1.35-.33-2.11a37,37,0,0,0-1.07-5.22,48.41,48.41,0,0,0-5.63-13.42A50.31,50.31,0,0,0,68.26,92a52,52,0,0,0-6.55,2.89,49.9,49.9,0,0,0-6.16,4,55.17,55.17,0,0,0-5.69,4.84,56.23,56.23,0,0,0-4.92,5.82,48.62,48.62,0,0,0-7.18,13.83,49.73,49.73,0,0,0,0,31.68,48.91,48.91,0,0,0,7.17,13.84,57.5,57.5,0,0,0,4.92,5.82,57.79,57.79,0,0,0,5.7,4.85,52.35,52.35,0,0,0,6.16,4,51.91,51.91,0,0,0,6.55,2.88,50.56,50.56,0,0,0,26.39,2.21,50.62,50.62,0,0,0,34-23.65,48.48,48.48,0,0,0,5.63-13.41,37.45,37.45,0,0,0,1.07-5.23c.12-.76.26-1.46.33-2.11s.08-1.24.11-1.77c.08-1,.13-1.82.17-2.4a4.65,4.65,0,0,1,.1-.82,6.28,6.28,0,0,1,0,.82c0,.59,0,1.39-.08,2.41,0,.54,0,1.13-.06,1.78s-.18,1.37-.28,2.14a37,37,0,0,1-1,5.27,48.1,48.1,0,0,1-5.53,13.61A51,51,0,0,1,94.8,189.36a51.17,51.17,0,0,1-26.86-2.15,53,53,0,0,1-6.68-2.92,55.13,55.13,0,0,1-6.28-4,57.39,57.39,0,0,1-5.81-4.93,57.45,57.45,0,0,1-5-5.93,49.76,49.76,0,0,1-7.33-14.1,50.75,50.75,0,0,1,0-32.31,49.4,49.4,0,0,1,7.34-14.1,56.15,56.15,0,0,1,5-5.93A56,56,0,0,1,55,98.05a52.5,52.5,0,0,1,6.28-4,51.63,51.63,0,0,1,6.68-2.92A51.06,51.06,0,0,1,94.8,89a51,51,0,0,1,34.34,24.17,48.1,48.1,0,0,1,5.53,13.61,37.09,37.09,0,0,1,1,5.28c.1.77.22,1.47.28,2.13s0,1.24.06,1.78c0,1,.06,1.82.08,2.41A6.51,6.51,0,0,1,136.07,139.16Z" style="fill:#263238"></path><path d="M144.85,180.67a7.09,7.09,0,1,1-7.08-7.09A7.08,7.08,0,0,1,144.85,180.67Z" style="fill:#fff"></path><path d="M144.85,180.67c-.09,0-.09-.63-.41-1.68a7.07,7.07,0,0,0-2.6-3.67,6.77,6.77,0,0,0-6.33-.87,6.64,6.64,0,0,0,0,12.44,6.77,6.77,0,0,0,6.33-.87,7.11,7.11,0,0,0,2.6-3.67c.32-1,.32-1.68.41-1.68a3.41,3.41,0,0,1,0,1.78,7,7,0,0,1-2.55,4.13,7.42,7.42,0,0,1-7.07,1.18,7.52,7.52,0,0,1,0-14.18,7.39,7.39,0,0,1,7.07,1.18,7,7,0,0,1,2.55,4.13A3.44,3.44,0,0,1,144.85,180.67Z" style="fill:#263238"></path><circle cx="67.42" cy="139.82" r="4.53" style="fill:#263238"></circle><circle cx="85.37" cy="139.82" r="4.53" style="fill:#263238"></circle><circle cx="103.32" cy="139.82" r="4.53" style="fill:#263238"></circle></g><g id="freepik--Gears--inject-12"><path d="M101.86,215.41a26.41,26.41,0,0,1,6.33-2.75l1.31-6.26,10.59-.19,1.52,6.22A25.51,25.51,0,0,1,128,215l5.36-3.5L141,218.8l-3.31,5.47a26.24,26.24,0,0,1,2.75,6.33l6.26,1.31.19,10.59L140.67,244a25.51,25.51,0,0,1-2.52,6.42l3.5,5.36-7.35,7.61-5.47-3.31a26.24,26.24,0,0,1-6.33,2.75l-1.31,6.26-10.59.19-1.52-6.22a25.9,25.9,0,0,1-6.42-2.52l-5.35,3.5-7.62-7.35L93,251.24a26.24,26.24,0,0,1-2.75-6.33L84,243.6,83.8,233,90,231.49a25.9,25.9,0,0,1,2.52-6.42L89,219.72l7.35-7.62,5.47,3.31Zm5.65,14.11a11.36,11.36,0,1,0,16.06-.28A11.36,11.36,0,0,0,107.51,229.52Z" style="fill:#f5f5f5"></path><path d="M101.86,215.41a26.41,26.41,0,0,1,6.33-2.75l1.31-6.26,10.59-.19,1.52,6.22A25.51,25.51,0,0,1,128,215l5.36-3.5L141,218.8l-3.31,5.47a26.24,26.24,0,0,1,2.75,6.33l6.26,1.31.19,10.59L140.67,244a25.51,25.51,0,0,1-2.52,6.42l3.5,5.36-7.35,7.61-5.47-3.31a26.24,26.24,0,0,1-6.33,2.75l-1.31,6.26-10.59.19-1.52-6.22a25.9,25.9,0,0,1-6.42-2.52l-5.35,3.5-7.62-7.35L93,251.24a26.24,26.24,0,0,1-2.75-6.33L84,243.6,83.8,233,90,231.49a25.9,25.9,0,0,1,2.52-6.42L89,219.72l7.35-7.62,5.47,3.31Zm5.65,14.11a11.36,11.36,0,1,0,16.06-.28A11.36,11.36,0,0,0,107.51,229.52Z" style="fill:none"></path><path d="M107.51,229.52a8.64,8.64,0,0,1,2.13-1.84,11.49,11.49,0,0,1,12.4.06,11.62,11.62,0,0,1,4,4.58,10.82,10.82,0,0,1,1,3.17,11,11,0,0,1,.06,3.48,11.52,11.52,0,0,1-9.54,9.87,10.72,10.72,0,0,1-3.48.07A11,11,0,0,1,111,248a11.61,11.61,0,0,1-4.72-3.89,11.44,11.44,0,0,1-2-4.94,11.33,11.33,0,0,1,1.47-7.45,8.59,8.59,0,0,1,1.76-2.19,21.06,21.06,0,0,0-1.59,2.29,11.29,11.29,0,0,0-1.27,7.29,11,11,0,0,0,1.95,4.75,11.17,11.17,0,0,0,4.55,3.7,10.2,10.2,0,0,0,3.08.86,10.36,10.36,0,0,0,3.33-.07,11,11,0,0,0,9.11-9.44,11,11,0,0,0-1-6.37,11.19,11.19,0,0,0-8.67-6.21,11.32,11.32,0,0,0-7.25,1.54A21.77,21.77,0,0,0,107.51,229.52Z" style="fill:#263238"></path><path d="M101.86,215.41a3,3,0,0,1-.35-.19l-1.05-.61-4.11-2.44.1,0-7.32,7.66,0-.17L92.67,225l0,.08,0,.08a26.26,26.26,0,0,0-2.5,6.39l0,.1-.1,0-6.22,1.53L84,233c.06,3.33.13,6.87.2,10.59l-.16-.2,6.27,1.3.12,0,0,.13a25.51,25.51,0,0,0,2.74,6.27l.07.12-.07.11-3.31,5.48,0-.29,7.62,7.35-.3,0,5.35-3.51.13-.08.13.07a26.27,26.27,0,0,0,6.36,2.5l.15,0,0,.15c.47,2,1,4.07,1.52,6.22l-.25-.2,10.59-.18-.25.2c.41-2,.85-4.11,1.3-6.27l0-.15.16,0a26,26,0,0,0,6.26-2.72h0l.14-.08.13.08,5.47,3.32-.32,0,7.36-7.61,0,.32-3.51-5.36-.08-.13.07-.13a25.61,25.61,0,0,0,2.51-6.36l0-.15.14,0,6.22-1.52-.19.24q-.09-5.42-.18-10.59l.2.23-6.27-1.31-.14,0,0-.13a25.4,25.4,0,0,0-2.72-6.28l-.07-.12.07-.12,3.33-5.46,0,.27-7.6-7.37.24,0-5.35,3.5-.1.06-.1,0a25.85,25.85,0,0,0-6.37-2.53l-.1,0,0-.1c-.54-2.26-1-4.3-1.5-6.22l.15.11-10.59.15.11-.09c-.53,2.5-1,4.55-1.33,6.26v0h0a26.52,26.52,0,0,0-4.84,1.88c-.52.25-.89.46-1.14.6a3.34,3.34,0,0,1-.38.19l.36-.23c.24-.15.61-.37,1.12-.64a24.82,24.82,0,0,1,4.83-2l-.06.07c.35-1.71.77-3.77,1.27-6.28l0-.09h.1l10.58-.22h.13l0,.12c.47,1.92,1,4,1.54,6.22l-.13-.13a26.31,26.31,0,0,1,6.48,2.53h-.2l5.35-3.52.13-.09.11.11c2.42,2.32,4.95,4.76,7.63,7.35l.13.12-.09.14-3.31,5.48v-.23a25.92,25.92,0,0,1,2.78,6.38l-.17-.16,6.26,1.29.19,0v.19c.07,3.45.13,7,.2,10.59v.2l-.19.05-6.22,1.53.19-.19a26.08,26.08,0,0,1-2.55,6.49v-.27l3.51,5.35.11.18-.14.14-7.35,7.62-.15.15-.18-.1-5.47-3.32H129a26.27,26.27,0,0,1-6.39,2.78l.18-.2c-.45,2.15-.89,4.29-1.3,6.27l0,.2h-.2l-10.59.19h-.21l0-.2c-.53-2.15-1-4.27-1.52-6.22l.18.19a26.15,26.15,0,0,1-6.48-2.56h.25l-5.35,3.51-.16.1-.14-.13-7.61-7.36-.14-.13.1-.16,3.32-5.47v.23A25.8,25.8,0,0,1,90.05,245l.16.16-6.27-1.32-.16,0v-.16c-.06-3.72-.11-7.26-.17-10.59v-.15l.15,0L90,231.32l-.13.13A26.16,26.16,0,0,1,92.41,225v.16l-3.49-5.36-.06-.09.07-.08L96.33,212l0,0,.06,0,4,2.5,1,.65Z" style="fill:#263238"></path><path d="M333.16,123.82a45.19,45.19,0,0,1,11-4.76l2.26-10.85,18.33-.32,2.64,10.76A45.16,45.16,0,0,1,378.47,123l9.26-6.07,13.19,12.73-5.74,9.47a44.8,44.8,0,0,1,4.76,11l10.85,2.26.32,18.33-10.76,2.64A44.74,44.74,0,0,1,396,184.47l6.07,9.26-12.73,13.19-9.47-5.74a45.09,45.09,0,0,1-11,4.76l-2.26,10.85-18.32.32-2.64-10.76A45,45,0,0,1,334.54,202l-9.27,6.07-13.19-12.74,5.75-9.47a44.51,44.51,0,0,1-4.77-11l-10.85-2.26-.32-18.33,10.76-2.63A45.23,45.23,0,0,1,317,140.53L311,131.27l12.73-13.19,9.47,5.74Zm9.77,24.42a19.67,19.67,0,1,0,27.81-.49A19.68,19.68,0,0,0,342.93,148.24Z" style="fill:#f5f5f5"></path><path d="M333.16,123.82a45.19,45.19,0,0,1,11-4.76l2.26-10.85,18.33-.32,2.64,10.76A45.16,45.16,0,0,1,378.47,123l9.26-6.07,13.19,12.73-5.74,9.47a44.8,44.8,0,0,1,4.76,11l10.85,2.26.32,18.33-10.76,2.64A44.74,44.74,0,0,1,396,184.47l6.07,9.26-12.73,13.19-9.47-5.74a45.09,45.09,0,0,1-11,4.76l-2.26,10.85-18.32.32-2.64-10.76A45,45,0,0,1,334.54,202l-9.27,6.07-13.19-12.74,5.75-9.47a44.51,44.51,0,0,1-4.77-11l-10.85-2.26-.32-18.33,10.76-2.63A45.23,45.23,0,0,1,317,140.53L311,131.27l12.73-13.19,9.47,5.74Zm9.77,24.42a19.67,19.67,0,1,0,27.81-.49A19.68,19.68,0,0,0,342.93,148.24Z" style="fill:none"></path><path d="M342.93,148.24l.22-.23.67-.66a8.75,8.75,0,0,1,1.14-1,14.52,14.52,0,0,1,1.7-1.21,18.4,18.4,0,0,1,5.21-2.32,19.56,19.56,0,0,1,7.53-.6A19.77,19.77,0,0,1,368,145.3a20,20,0,0,1,6.94,7.86,18.81,18.81,0,0,1,1.75,5.45,22,22,0,0,1,.3,2.95,21.74,21.74,0,0,1-.2,3,20,20,0,0,1-5.38,11.17,21.14,21.14,0,0,1-5.11,3.81,19.4,19.4,0,0,1-5.86,2,23.6,23.6,0,0,1-3,.3,24.12,24.12,0,0,1-3-.19,18.81,18.81,0,0,1-5.51-1.57,19.89,19.89,0,0,1-8.09-6.66,19.76,19.76,0,0,1-3.06-16,18.81,18.81,0,0,1,2.13-5.29,13.28,13.28,0,0,1,1.16-1.73,8.93,8.93,0,0,1,1-1.19l.64-.68a2.69,2.69,0,0,1,.22-.23s-.05.1-.19.26l-.59.72a10.42,10.42,0,0,0-.92,1.21,14.31,14.31,0,0,0-1.1,1.74,18.94,18.94,0,0,0-2,5.26,19.47,19.47,0,0,0-.25,7.42,19.24,19.24,0,0,0,3.38,8.3,19.44,19.44,0,0,0,7.94,6.47,18.22,18.22,0,0,0,5.37,1.51,21.36,21.36,0,0,0,2.89.18,20.79,20.79,0,0,0,2.93-.3,19.34,19.34,0,0,0,15.94-16.5,22.55,22.55,0,0,0,.19-2.94,21,21,0,0,0-.28-2.88,18.29,18.29,0,0,0-1.69-5.32A19.5,19.5,0,0,0,352,143.09a18.81,18.81,0,0,0-5.18,2.21,15.24,15.24,0,0,0-1.71,1.16,9.57,9.57,0,0,0-1.17,1l-.7.62C343,148.18,342.94,148.25,342.93,148.24Z" style="fill:#263238"></path><path d="M333.16,123.82s-.2-.1-.61-.34l-1.81-1.08-7.09-4.25h.1c-3.24,3.37-7.51,7.83-12.7,13.22l0-.16c1.84,2.8,3.89,5.92,6.09,9.25l0,.08,0,.08a45,45,0,0,0-4.34,11.09l0,.1-.1,0-10.76,2.65.14-.18c.11,5.77.22,11.9.34,18.33l-.16-.2,10.85,2.25.12,0,0,.12A44.92,44.92,0,0,0,318,185.73l.07.11L318,186l-5.74,9.47,0-.28,13.19,12.72-.3,0,9.26-6.07.13-.08.13.07a45,45,0,0,0,11.06,4.35l.15,0,0,.15c.83,3.37,1.73,7.05,2.64,10.76l-.25-.19,18.33-.33-.25.21c.71-3.43,1.48-7.13,2.26-10.85l0-.15.15-.05A44.53,44.53,0,0,0,379.7,201h0l.14-.08.13.08,9.47,5.74-.32,0,12.73-13.19,0,.32-6.07-9.26-.08-.13.07-.14a44.62,44.62,0,0,0,4.36-11.05l0-.15.15,0,10.77-2.63-.19.24q-.17-9.37-.32-18.33l.19.24-10.84-2.27-.14,0,0-.13A44.81,44.81,0,0,0,395,139.28l-.07-.12L395,139l5.75-9.46,0,.27L387.6,117.1l.24,0-9.27,6.06-.09.07-.1-.06a44.59,44.59,0,0,0-11.07-4.37l-.1,0,0-.1-2.62-10.76.15.12-18.33.28.12-.09c-.92,4.34-1.67,7.89-2.29,10.84v0h-.05a44.81,44.81,0,0,0-8.38,3.28c-.89.44-1.53.81-2,1s-.65.35-.65.35.21-.14.63-.39,1.06-.63,1.94-1.09A44.09,44.09,0,0,1,344.1,119L344,119c.61-3,1.34-6.51,2.23-10.85l0-.09h.09l18.33-.36h.12l0,.12c.82,3.33,1.69,6.85,2.66,10.76l-.13-.12a45.38,45.38,0,0,1,11.17,4.37h-.19l9.26-6.08.13-.09.11.11,13.2,12.72.13.12-.09.15-5.74,9.48V139a44.83,44.83,0,0,1,4.8,11l-.18-.17,10.85,2.26.19,0v.2q.17,8.94.33,18.33v.19l-.2,0-10.76,2.64.19-.18a45.24,45.24,0,0,1-4.4,11.18v-.26l6.07,9.26.12.17-.15.15L389.5,207.1l-.14.15-.18-.11-9.47-5.74H380a45.18,45.18,0,0,1-11,4.78l.19-.19c-.78,3.72-1.55,7.42-2.26,10.84l0,.21h-.21l-18.33.32h-.2l-.05-.2c-.91-3.71-1.81-7.39-2.64-10.76l.19.19a45.42,45.42,0,0,1-11.18-4.41h.25l-9.26,6.07-.17.11-.14-.14-13.18-12.74-.13-.13.1-.16,5.74-9.46V186a45.31,45.31,0,0,1-4.77-11l.16.15-10.85-2.27-.16,0v-.16q-.17-9.66-.3-18.33v-.15l.15,0,10.76-2.62-.12.12a45.2,45.2,0,0,1,4.41-11.15v.16l-6-9.28-.06-.09.07-.07c5.21-5.37,9.52-9.8,12.77-13.16l.05,0,.05,0,7,4.31,1.8,1.11Z" style="fill:#263238"></path><path d="M267,60.1a28.75,28.75,0,0,1,7-3l1.44-6.94,11.71-.2,1.69,6.88a28.56,28.56,0,0,1,7.11,2.79l5.92-3.88,8.43,8.14-3.67,6.05a29,29,0,0,1,3,7l6.93,1.44.21,11.71-6.88,1.69a28.75,28.75,0,0,1-2.8,7.11l3.88,5.92-8.13,8.42-6-3.67a28.78,28.78,0,0,1-7,3l-1.44,6.93-11.72.21-1.68-6.88a28.83,28.83,0,0,1-7.11-2.8l-5.92,3.88-8.43-8.13,3.67-6.06a28.52,28.52,0,0,1-3-7l-6.93-1.44L247,79.57l6.88-1.68a28.41,28.41,0,0,1,2.79-7.11l-3.88-5.92,8.14-8.43L267,60.1Zm6.25,15.6A12.57,12.57,0,1,0,291,75.39,12.58,12.58,0,0,0,273.2,75.7Z" style="fill:#f5f5f5"></path><path d="M267,60.1a28.75,28.75,0,0,1,7-3l1.44-6.94,11.71-.2,1.69,6.88a28.56,28.56,0,0,1,7.11,2.79l5.92-3.88,8.43,8.14-3.67,6.05a29,29,0,0,1,3,7l6.93,1.44.21,11.71-6.88,1.69a28.75,28.75,0,0,1-2.8,7.11l3.88,5.92-8.13,8.42-6-3.67a28.78,28.78,0,0,1-7,3l-1.44,6.93-11.72.21-1.68-6.88a28.83,28.83,0,0,1-7.11-2.8l-5.92,3.88-8.43-8.13,3.67-6.06a28.52,28.52,0,0,1-3-7l-6.93-1.44L247,79.57l6.88-1.68a28.41,28.41,0,0,1,2.79-7.11l-3.88-5.92,8.14-8.43L267,60.1Zm6.25,15.6A12.57,12.57,0,1,0,291,75.39,12.58,12.58,0,0,0,273.2,75.7Z" style="fill:none"></path><path d="M273.2,75.7a9.63,9.63,0,0,1,2.35-2,12.68,12.68,0,0,1,13.74.06,12.74,12.74,0,0,1,4.48,5.06,12.21,12.21,0,0,1,1.14,3.52,11.82,11.82,0,0,1,.07,3.85,12.79,12.79,0,0,1-10.57,11,13,13,0,0,1-7.41-1,12.77,12.77,0,0,1-7.39-9.79,12.56,12.56,0,0,1,1.63-8.24,9.89,9.89,0,0,1,2-2.43,28.2,28.2,0,0,0-1.75,2.55,12.5,12.5,0,0,0-1.4,8.06,12.26,12.26,0,0,0,2.15,5.24,12.44,12.44,0,0,0,5,4.09,12.25,12.25,0,0,0,7.07.87,12.22,12.22,0,0,0,10.07-10.43,11.63,11.63,0,0,0-.05-3.68A11.49,11.49,0,0,0,293.26,79a12.36,12.36,0,0,0-9.58-6.86,12.53,12.53,0,0,0-8,1.69A30.2,30.2,0,0,0,273.2,75.7Z" style="fill:#263238"></path><path d="M267,60.1l-.39-.21-1.16-.67-4.55-2.7.12,0L252.88,65v-.2l3.91,5.91.06.09-.06.1a28.52,28.52,0,0,0-2.75,7.06l0,.12-.12,0L247,79.79l.17-.22c.07,3.69.15,7.6.23,11.71l-.19-.23,6.93,1.43.15,0,0,.15a29.24,29.24,0,0,0,3,6.94l.08.13-.08.14-3.66,6.06-.05-.34,8.44,8.13-.36,0,5.92-3.88.15-.1.15.09a29,29,0,0,0,7,2.76l.18,0,0,.18c.53,2.15,1.11,4.5,1.69,6.87l-.3-.23,11.71-.21-.29.25c.45-2.19.94-4.55,1.44-6.93l0-.19.18,0a28.12,28.12,0,0,0,6.92-3h0l.16-.1.16.1,6.05,3.67-.38,0,8.13-8.43,0,.38L306.84,99l-.1-.15.09-.16a28.5,28.5,0,0,0,2.77-7l0-.18.18,0,6.88-1.68-.23.29c-.06-4-.13-7.91-.19-11.72l.22.28-6.93-1.45-.16,0-.05-.16a28.56,28.56,0,0,0-3-6.94l-.09-.14.09-.14,3.68-6,0,.31-8.42-8.15.3,0L296,59.78l-.11.07-.12-.06a28.21,28.21,0,0,0-7.05-2.8l-.12,0,0-.12c-.6-2.5-1.15-4.75-1.66-6.88l.18.14-11.72.16.14-.11c-.6,2.77-1.08,5-1.48,6.93l0,.06H274a30.25,30.25,0,0,0-5.35,2.07c-.57.28-1,.51-1.26.66a4.7,4.7,0,0,1-.42.22l.4-.26c.26-.16.67-.41,1.23-.71A28.07,28.07,0,0,1,273.93,57l-.07.08c.38-1.9.84-4.17,1.4-6.94l0-.11h.11l11.71-.25h.15l0,.14L289,56.75l-.15-.15A28.88,28.88,0,0,1,296,59.4h-.23l5.91-3.9.16-.1.13.13,8.44,8.12.15.15-.1.17L306.81,70v-.28a29.69,29.69,0,0,1,3.08,7.07l-.21-.19,6.93,1.43.22.05v.22q.11,5.72.21,11.72v.23l-.23.06L310,92l.22-.22A29.14,29.14,0,0,1,307.36,99v-.31l3.88,5.92.13.2-.17.18-8.13,8.43-.17.18-.21-.13-6.05-3.67h.31a28.46,28.46,0,0,1-7.08,3.07l.22-.23c-.49,2.38-1,4.74-1.44,6.93l-.05.24h-.25l-11.71.2h-.24l-.06-.23c-.58-2.38-1.16-4.73-1.68-6.88l.22.22a29.22,29.22,0,0,1-7.18-2.83h.3l-5.92,3.87-.19.13-.17-.16L253.29,106l-.16-.15.12-.19,3.67-6v.27a29.23,29.23,0,0,1-3.06-7.07l.2.18-6.93-1.46-.2,0v-.19c-.06-4.11-.12-8-.18-11.71V79.4l.17,0,6.88-1.67-.15.15a29.15,29.15,0,0,1,2.83-7.15v.19L252.63,65l-.07-.11.09-.09,8.18-8.39.05,0,.07,0,4.47,2.77,1.14.72C266.82,60,267,60.1,267,60.1Z" style="fill:#263238"></path><path d="M120.5,301.91a47,47,0,0,1,11.43-5l2.36-11.32,19.13-.34,2.75,11.23a46.84,46.84,0,0,1,11.61,4.57l9.67-6.34L191.21,308l-6,9.88a47.14,47.14,0,0,1,5,11.45l11.32,2.35.34,19.13-11.24,2.75a46.42,46.42,0,0,1-4.56,11.61l6.33,9.67L179.1,388.63l-9.89-6a47.07,47.07,0,0,1-11.44,5l-2.35,11.32-19.13.34L133.53,388a46.5,46.5,0,0,1-11.6-4.56l-9.67,6.34L98.5,376.52l6-9.89a46.53,46.53,0,0,1-5-11.44L88.2,352.84l-.34-19.13L99.09,331a46.84,46.84,0,0,1,4.57-11.61l-6.34-9.67,13.29-13.76,9.89,6Zm10.19,25.48a20.52,20.52,0,1,0,29-.51A20.53,20.53,0,0,0,130.69,327.39Z" style="fill:#f5f5f5"></path><path d="M120.5,301.91a47,47,0,0,1,11.43-5l2.36-11.32,19.13-.34,2.75,11.23a46.84,46.84,0,0,1,11.61,4.57l9.67-6.34L191.21,308l-6,9.88a47.14,47.14,0,0,1,5,11.45l11.32,2.35.34,19.13-11.24,2.75a46.42,46.42,0,0,1-4.56,11.61l6.33,9.67L179.1,388.63l-9.89-6a47.07,47.07,0,0,1-11.44,5l-2.35,11.32-19.13.34L133.53,388a46.5,46.5,0,0,1-11.6-4.56l-9.67,6.34L98.5,376.52l6-9.89a46.53,46.53,0,0,1-5-11.44L88.2,352.84l-.34-19.13L99.09,331a46.84,46.84,0,0,1,4.57-11.61l-6.34-9.67,13.29-13.76,9.89,6Zm10.19,25.48a20.52,20.52,0,1,0,29-.51A20.53,20.53,0,0,0,130.69,327.39Z" style="fill:none"></path><path d="M130.69,327.39a2.38,2.38,0,0,1,.23-.24l.69-.69a10.65,10.65,0,0,1,1.2-1,14.88,14.88,0,0,1,1.77-1.26,19.23,19.23,0,0,1,5.44-2.42,20.73,20.73,0,0,1,16.83,2.6,20.36,20.36,0,0,1,9.07,13.88,22.32,22.32,0,0,1,.31,3.08,24,24,0,0,1-.2,3.15,20.05,20.05,0,0,1-1.84,6.18,22,22,0,0,1-3.78,5.46,22.27,22.27,0,0,1-5.33,4,20.4,20.4,0,0,1-6.11,2.05,24,24,0,0,1-3.14.31,22.59,22.59,0,0,1-3.09-.2,21.11,21.11,0,0,1-3-.6,20.42,20.42,0,0,1-2.77-1,20.57,20.57,0,0,1-12-15.8,20.49,20.49,0,0,1,.35-7.88,19.23,19.23,0,0,1,2.23-5.52,14.56,14.56,0,0,1,1.2-1.81,8.88,8.88,0,0,1,1-1.23l.66-.72.24-.24s-.06.1-.2.27l-.62.75a11.3,11.3,0,0,0-1,1.26,17.13,17.13,0,0,0-1.15,1.82,19.91,19.91,0,0,0-2.12,5.49,20.32,20.32,0,0,0,11.56,23.17,18.61,18.61,0,0,0,2.71,1,21.26,21.26,0,0,0,2.9.58,24.82,24.82,0,0,0,3,.19,22.86,22.86,0,0,0,3.06-.32,19.42,19.42,0,0,0,6-2,20.13,20.13,0,0,0,8.89-9.2,19.9,19.9,0,0,0,1.79-6,24.62,24.62,0,0,0,.21-3.07,22.9,22.9,0,0,0-.3-3,19,19,0,0,0-1.77-5.55,20.37,20.37,0,0,0-7-8A20.44,20.44,0,0,0,140.1,322a19.64,19.64,0,0,0-5.41,2.31,14,14,0,0,0-1.78,1.22,9.53,9.53,0,0,0-1.23,1l-.73.65C130.79,327.33,130.7,327.4,130.69,327.39Z" style="fill:#263238"></path><path d="M120.5,301.91s-.22-.11-.64-.36L118,300.43l-7.4-4.44h.1L97.42,309.77v-.16c1.93,2.92,4.07,6.18,6.36,9.66l0,.07,0,.08A47.36,47.36,0,0,0,99.26,331l0,.1-.1,0-11.22,2.77.14-.18c.11,6,.23,12.41.35,19.12l-.16-.19L99.56,355l.13,0,0,.13a47,47,0,0,0,5,11.38l.07.11-.07.12c-1.85,3.07-3.9,6.44-6,9.89l0-.29,13.77,13.28-.3,0,9.66-6.34.13-.08.13.07a46.51,46.51,0,0,0,11.55,4.54l.14,0,0,.15c.86,3.51,1.8,7.35,2.76,11.23l-.26-.2,19.13-.34-.25.21c.75-3.58,1.55-7.44,2.36-11.32l0-.16.15,0a46.53,46.53,0,0,0,11.37-4.94h0l.13-.08.14.08,9.88,6-.32,0,13.29-13.76,0,.32q-3.19-4.89-6.34-9.67l-.08-.13.08-.14a46.66,46.66,0,0,0,4.54-11.54l0-.14.14,0,11.24-2.75-.19.24q-.16-9.79-.33-19.12l.19.23-11.32-2.37-.14,0,0-.14A46.84,46.84,0,0,0,185,318l-.08-.12.08-.11c2.05-3.39,4.05-6.67,6-9.88l0,.27-13.75-13.3.25,0-9.68,6.33-.09.06-.1-.06a46.72,46.72,0,0,0-11.56-4.56l-.1,0,0-.11c-1-4.08-1.89-7.76-2.74-11.23l.15.12-19.13.3.11-.1c-1,4.53-1.73,8.24-2.38,11.32V297h0a47.75,47.75,0,0,0-8.75,3.42c-.92.47-1.59.85-2,1.1s-.67.37-.67.37l.65-.41c.44-.26,1.11-.66,2-1.14a47,47,0,0,1,8.74-3.5l-.06.06c.63-3.08,1.4-6.79,2.33-11.33v-.09h.1l19.13-.37h.12l0,.12c.85,3.47,1.76,7.14,2.77,11.22l-.13-.12a47,47,0,0,1,11.66,4.57h-.19l9.66-6.34.13-.09.12.11,13.77,13.28.13.12-.09.14-6,9.89v-.23a47,47,0,0,1,5,11.49l-.17-.16,11.32,2.35.19,0v.19q.17,9.33.34,19.13V351l-.2.05-11.23,2.76.19-.19a46.77,46.77,0,0,1-4.59,11.67v-.26q3.13,4.79,6.34,9.67l.11.17-.14.15-13.29,13.76-.14.15-.18-.11-9.88-6h.26a47.19,47.19,0,0,1-11.5,5l.19-.2c-.81,3.89-1.62,7.75-2.36,11.32l0,.21h-.21l-19.13.33h-.2l-.05-.2-2.75-11.23.18.18a47.81,47.81,0,0,1-11.66-4.59h.25L112.39,390l-.16.1-.14-.13-13.75-13.3-.14-.12.1-.16,6-9.88v.23a47.36,47.36,0,0,1-5-11.5l.16.15L88.16,353,88,353v-.17c-.11-6.71-.21-13.1-.31-19.13v-.15l.15,0,11.23-2.74-.12.12a46.89,46.89,0,0,1,4.6-11.63v.15l-6.32-9.68-.06-.08.08-.08,13.32-13.73,0-.05.05,0,7.33,4.49,1.88,1.16Z" style="fill:#263238"></path></g><g id="freepik--Character--inject-12"><path d="M332.7,369.85c-2.24-1.45-32.11-7.66-32.11-7.66l-72,1.88-25.79,4.75s-4.78,80-4.07,81.47,53.8.57,55.21,2S304.37,459,304.37,459l45.37-81.41Z" style="fill:#ae7461"></path><path d="M400.66,390.21c-16.35-13.88-81-25.62-84.62-25.62,0,0-5,40.28-50,40.28-38.27,0-47.41-39-47.41-39l-27.94,4.39c-4.3.82-42.51,9.77-48.78,11.55-13.05,3.7-39.79,13.17-47.54,41.43-2.86,10.46-2.78,29.29-6.21,44.31l68.06,0s219.73.19,219.75,0l73.88.06S418,404.92,400.66,390.21Z" style="fill:#126435"></path><path d="M148.17,467.73c-.14,0-3-7.45-6.46-16.74s-6.11-16.87-6-16.92,3,7.44,6.46,16.74S148.3,467.68,148.17,467.73Z" style="fill:#263238"></path><path d="M366.77,467.39a6.13,6.13,0,0,1-.1-1.23c0-.9-.05-2-.08-3.36,0-2.95-.1-6.81-.16-11.08s-.28-8.23-.49-11.06c-.1-1.33-.18-2.45-.25-3.34a6.83,6.83,0,0,1-.05-1.24,5,5,0,0,1,.25,1.21c.13.79.27,1.93.42,3.34.3,2.83.55,6.75.64,11.08s.06,8.25,0,11.09c0,1.33-.06,2.46-.09,3.36A5.32,5.32,0,0,1,366.77,467.39Z" style="fill:#263238"></path><g style="opacity:0.30000000000000004"><path d="M237.49,467.77c3.08-13.21,6.52-26.31,7.42-40.77a24.83,24.83,0,0,1,1.12-7.29c1.8-4.74,6.83-8.25,7-13.32.12-5.31-6-9.27-11.18-8.27s-9.12,5.64-10.89,10.65-1.81,10.43-2,15.74c-.56,13.48-10.32,30.13-13.39,43.26"></path></g><path d="M218.8,134.16c-23.09,5.58-44.76,27.91-54.45,49.21s-10.22,41.45-7.26,64.59c1.79,14,5.72,28.27,8.27,41.62,2.65,13.9-4,33.36-11.56,45.38-2.88,4.54-6.72,9.45-5.34,14.62,1.27,4.79,6.54,7.38,11.41,8.65a53.54,53.54,0,0,0,30.48-1.07q-.65,5.14-1.3,10.28c26.29-.53,51.61-9.21,76.41-17.79,8.31-2.87,17-6,22.83-12.46,3.21-3.57,5.34-7.93,7.37-12.25a537.53,537.53,0,0,0,21.65-53.41" style="fill:#263238"></path><path d="M337,165.84c-20-24.39-46.76-38.43-78.27-38.95-17.78-.3-25.13,3.4-37.94,6.85s-24.35,10.32-32,21.17c-9.07,12.87-16.69,27.29-18.41,43-1.76,16.08-3.52,32.27-2.31,48.41s5.6,32.38,15.1,45.47l41,7.14c22.67.77,45.65,1.51,67.74-3.66s43.55-17.06,55.38-36.41C363.75,231.92,356.93,190.24,337,165.84Z" style="fill:#263238"></path><path d="M300.44,165.57l-54.72-21.75-14.3,1.66c-32.17.12-54.36,35.59-54.57,61.65-.23,28.94.63,64.29,5.22,85.63,9.25,42.9,45.87,46.47,45.87,46.47s-.75,22.86-1,37.27l83.79-6.05,4.21-190.18A15.25,15.25,0,0,0,300.44,165.57Z" style="fill:#ae7461"></path><path d="M198.46,242.28a5.55,5.55,0,0,0,5.66,5.31,5.31,5.31,0,0,0,5.44-5.32,5.56,5.56,0,0,0-5.65-5.31A5.32,5.32,0,0,0,198.46,242.28Z" style="fill:#263238"></path><path d="M186,228.35c.73.66,4.89-2.5,11-2.74s10.73,2.43,11.36,1.7c.31-.32-.47-1.54-2.48-2.79a16.35,16.35,0,0,0-9.14-2.22,15.55,15.55,0,0,0-8.72,3C186.16,226.77,185.58,228.05,186,228.35Z" style="fill:#263238"></path><path d="M225,268.44c0-.34-3.74-.78-9.79-1.22-1.54-.07-3-.29-3.31-1.32s.13-2.76.77-4.58l3.87-11.86c5.36-16.88,9.14-30.72,8.46-30.93s-5.57,13.3-10.93,30.18q-1.92,6.24-3.68,11.92c-.48,1.76-1.37,3.78-.46,6a3.82,3.82,0,0,0,2.63,2.09,10.39,10.39,0,0,0,2.61.22C221.28,269,225,268.78,225,268.44Z" style="fill:#263238"></path><path d="M227.87,339.18s29.22.28,57.11-18.64c0,0-13.79,30.85-57.33,29.18Z" style="fill:#6f4439"></path><path d="M187.48,212.26c1.08,1.4,5.6.18,11,.33,5.37,0,9.87,1.31,11-.07.49-.67-.17-2.06-2.1-3.42a17,17,0,0,0-17.69-.22C187.68,210.2,187,211.58,187.48,212.26Z" style="fill:#263238"></path><path d="M267.63,241a5.56,5.56,0,0,1-5.26,5.7,5.32,5.32,0,0,1-5.82-4.91,5.56,5.56,0,0,1,5.26-5.7A5.31,5.31,0,0,1,267.63,241Z" style="fill:#263238"></path><path d="M270.82,225.66c-.71.84-5.5-2.33-12.05-2s-11.17,3.92-11.93,3.15c-.37-.34.33-1.82,2.33-3.46a16.72,16.72,0,0,1,9.5-3.51,16,16,0,0,1,9.65,2.56C270.42,223.88,271.18,225.28,270.82,225.66Z" style="fill:#263238"></path><path d="M261.93,204.69c-1.15,1.38-5.79.05-11.34.08-5.55-.14-10.23,1.09-11.34-.31-.49-.68.23-2.06,2.26-3.38a17.15,17.15,0,0,1,9.18-2.38,16.84,16.84,0,0,1,9.09,2.57C261.77,202.63,262.44,204,261.93,204.69Z" style="fill:#263238"></path><path d="M355.85,194.38C336.5,155,307.47,128.75,255.59,126.87l41.17,100.31c19.36,28.11,19.35,62.2,9.13,94.77-2.86,9.12-6.72,19.67-1.36,27.58s17.76,8.12,25.84,2.94c7.31-4.69,11.94-12.39,16.07-20.11a6.6,6.6,0,0,0,3.79,7c3.58,1.44,7.83-.3,10.39-3.2s3.75-6.73,4.72-10.47c3.4-13.14,4.82-26.71,5.47-40.27C372.29,254.36,369.54,222.29,355.85,194.38Z" style="fill:#263238"></path><path d="M307.48,253c-.17-3.23,3.14-11,6.29-11.7,8.43-1.79,23.79-2,25.11,19.63,1.82,29.49-28.17,25.23-28.28,24.39C310.52,284.66,308.06,264.13,307.48,253Z" style="fill:#ae7461"></path><path d="M318.08,274c.12-.1.54.33,1.43.67a5.13,5.13,0,0,0,3.85-.15c3-1.34,5.36-6.45,5.18-11.77a17,17,0,0,0-1.89-7.27c-1-2.1-2.53-3.53-4.11-3.71a2.63,2.63,0,0,0-3,1.6c-.34.85-.12,1.42-.27,1.48s-.67-.45-.5-1.68a3.23,3.23,0,0,1,1-1.93,4,4,0,0,1,2.8-.92c2.28,0,4.46,2,5.65,4.24a17.7,17.7,0,0,1,2.29,8.12c.17,5.95-2.53,11.7-6.72,13.2a5.55,5.55,0,0,1-4.75-.5C318.18,274.75,318,274.1,318.08,274Z" style="fill:#6f4439"></path><path d="M315,241.38l-7.51,9c-70.69-42.65-95.6-109.74-92.07-105.11,0,0,22.17-9.12,46.23-5s69.71,16.14,69,44.52S315,241.38,315,241.38Z" style="fill:#263238"></path><path d="M220.61,282.33c-1,.45-1.47,3.7-1.16,5a3.67,3.67,0,0,0,2.19,2.57,5.58,5.58,0,0,0,3,.12,33.89,33.89,0,0,0,7.16-2.23c2.44-1,5.89-3.29,8.27-4.53-3.83-1.94-8.76-2.74-12.83-3.21a6.1,6.1,0,0,0-4.21.73" style="fill:#6f4439"></path><path d="M221.58,282.09a2.83,2.83,0,0,1-1.09-3.34,4.48,4.48,0,0,1,2.69-2.54,11,11,0,0,1,3.75-.55c3,0,5.2.86,8,2a18,18,0,0,1,7.26,5.26c-7-.59-13.4-2.11-20.57-.81" style="fill:#6f4439"></path><path d="M220.05,289c-.06.06-.53-.2-1-1A5.09,5.09,0,0,1,219,284a6.42,6.42,0,0,1,4.48-3.63,18.3,18.3,0,0,1,6.83-.27,61.83,61.83,0,0,1,11.84,2.5c3,.93,4.71,1.68,4.65,1.88s-1.93-.16-4.93-.81a106,106,0,0,0-11.71-2,19.11,19.11,0,0,0-6.31.1,5.52,5.52,0,0,0-3.83,2.65,5,5,0,0,0-.36,3.25C219.86,288.48,220.14,288.87,220.05,289Z" style="fill:#263238"></path><path d="M244.93,303.7c-.13.12-1.13-1.09-3.17-2.45a16.33,16.33,0,0,0-17.94-.41c-2.1,1.28-3.15,2.44-3.28,2.31s.78-1.42,2.87-2.92a15.69,15.69,0,0,1,18.78.42C244.22,302.24,245,303.64,244.93,303.7Z" style="fill:#6f4439"></path><circle cx="317.86" cy="290.03" r="10.39" style="fill:#455a64"></circle><path d="M218.05,134.16c-.56,1.59,26.84-4.12,38.45,2.92s20.61,17.63,28.44,28.71c15.8,22.37,28.59,48.24,30,75.59,3.08-1.26,11.53-.72,15.67,1.91,0,0,14.52-88.39-71.95-116.4C258.7,126.89,223.15,119.73,218.05,134.16Z" style="fill:#455a64"></path><path d="M225.54,128.59a9.53,9.53,0,0,1,1.61-.57,31.8,31.8,0,0,1,4.78-1.12c1.06-.11,2.23-.36,3.53-.38l2-.11,2.19,0a52.29,52.29,0,0,1,10.2,1.44,73.89,73.89,0,0,1,24.19,11.26A108.15,108.15,0,0,1,298,161.47a112.71,112.71,0,0,1,16.44,28.28c.86,2.37,1.77,4.65,2.53,6.92s1.35,4.5,2,6.65l1.44,6.33c.45,2,.67,4,1,5.89.13,1,.32,1.86.4,2.76s.16,1.78.24,2.64c.13,1.71.32,3.32.38,4.83,0,3,.15,5.63.05,7.75s-.24,3.75-.32,4.89a9.49,9.49,0,0,1-.18,1.7,11.92,11.92,0,0,1,0-1.71c0-1.15.07-2.79.12-4.89s-.15-4.71-.23-7.71c-.09-1.5-.3-3.1-.46-4.8-.09-.84-.18-1.72-.27-2.61s-.29-1.8-.44-2.74c-.34-1.86-.59-3.83-1.05-5.84s-1-4.1-1.49-6.26-1.33-4.33-2-6.6-1.68-4.5-2.55-6.84a114.1,114.1,0,0,0-16.36-28,109.39,109.39,0,0,0-23.6-22.18,74.62,74.62,0,0,0-23.83-11.34,53.12,53.12,0,0,0-10-1.57L237.5,127l-2,.06c-1.29,0-2.45.21-3.5.29a40,40,0,0,0-4.78.92A12.13,12.13,0,0,1,225.54,128.59Z" style="fill:#263238"></path><path d="M225.87,467.39s7.69-29.9,10.76-42.19a22.83,22.83,0,0,0,.42-8.94l-.81-5.37c3.14-.55,4.46-1.16,7.34-3.61h0a4.92,4.92,0,0,0,5.09-2.8c1.24-2.42,2.79-6.52,4.29-10.34,2.74-7,3.7-16.72,3.7-16.72s4.71-8.79,4.43-12.52-2.92-9.84-2.92-9.84.67-6-.45-8.45c-1.71-3.79-6.09-5.78-10.64-4.51-3.88,1.08-22.91,4.92-22.91,4.92l-3.55-3.7-.92-13.26,10.75-3.72s7,3.08,12.11,1.14a9.64,9.64,0,0,0,4.53-3.3,2.46,2.46,0,0,0-.93-3.62c-4.47-2.22-14.76-7.19-18.08-7.51-4.28-.42-20.82,7.54-22.15,10-.28.5-2.31,29.71-2.31,29.71a17.94,17.94,0,0,0-4.43,11.19c0,6.5-1.65,55-1.65,55L173.2,467.37" style="fill:#ae7461"></path><path d="M173.2,467.37s.12-.29.4-.85l1.22-2.49c1.1-2.2,2.7-5.43,4.77-9.6l17.79-35.58,0,.07c.27-9.32.57-19.7.9-31q.24-8.46.51-17.56c0-1.51.09-3,.14-4.58a29.72,29.72,0,0,1,.33-4.68,18.59,18.59,0,0,1,4.2-8.58l-.06.15q.7-9.81,1.46-20.22c.13-1.73.27-3.47.41-5.22.08-.88.15-1.76.23-2.64.05-.45.08-.86.15-1.35a2.23,2.23,0,0,1,.09-.39l.23-.29a2.43,2.43,0,0,1,.5-.51,29.61,29.61,0,0,1,4.55-2.93c1.58-.88,3.21-1.67,4.86-2.45A51.81,51.81,0,0,1,226.27,313a6.14,6.14,0,0,1,2.86,0,24.21,24.21,0,0,1,2.7.85c1.77.65,3.51,1.38,5.24,2.14s3.45,1.57,5.17,2.39l2.58,1.25,1.28.63a2.84,2.84,0,0,1,1.2,1,2.67,2.67,0,0,1,.07,3,8.73,8.73,0,0,1-2.09,2.11,11.56,11.56,0,0,1-2.62,1.39,11.2,11.2,0,0,1-2.91.62,17.65,17.65,0,0,1-4.82-.37,25.55,25.55,0,0,1-4.59-1.39h.19l-10.74,3.72L220,330q.47,6.7.91,13.26l-.07-.16,3.55,3.7-.23-.07c7.62-1.57,15.11-3,22.33-4.77a10.93,10.93,0,0,1,5.59-.28,8.86,8.86,0,0,1,4.71,2.89,7.87,7.87,0,0,1,1.39,2.42,12.05,12.05,0,0,1,.43,2.7,35.24,35.24,0,0,1-.16,5.35l0-.12a55.15,55.15,0,0,1,2.07,5.76,25.81,25.81,0,0,1,.71,2.95,7.78,7.78,0,0,1,0,3,30.21,30.21,0,0,1-1.84,5.61c-.76,1.79-1.59,3.51-2.47,5.2l0-.08a83.54,83.54,0,0,1-2.06,11.48,81.05,81.05,0,0,1-3.69,10.43c-.67,1.66-1.34,3.3-2.11,4.87a6.33,6.33,0,0,1-1.58,2.12,4.84,4.84,0,0,1-2.37,1.1,5.21,5.21,0,0,1-1.31.05l-.16,0h0l.15,0h0l-.06.05-.24.2-.49.4a16.94,16.94,0,0,1-2,1.44,12.52,12.52,0,0,1-4.59,1.53l.14-.2c.32,2.23.69,4.38,1,6.53a23.26,23.26,0,0,1-.24,6.26c-.39,2-1,3.88-1.41,5.74l-1.37,5.35c-1.78,6.9-3.3,12.83-4.55,17.67l-2.88,11.11c-.34,1.26-.59,2.22-.76,2.88s-.28,1-.28,1,.07-.34.23-1l.71-2.89,2.79-11.14c1.22-4.85,2.72-10.78,4.46-17.68q.66-2.6,1.36-5.36c.44-1.85,1-3.75,1.38-5.72a22.69,22.69,0,0,0,.22-6.18c-.26-2.11-.64-4.28-1-6.51l0-.17.17,0a12.32,12.32,0,0,0,4.47-1.5,17.68,17.68,0,0,0,2-1.42l.47-.39.24-.2.06,0h0l.16-.05h.18a4.41,4.41,0,0,0,1.2-.05,4.94,4.94,0,0,0,3.67-3c.76-1.55,1.42-3.18,2.08-4.84a79.91,79.91,0,0,0,3.66-10.38,86.21,86.21,0,0,0,2-11.43v0l0,0c.88-1.67,1.7-3.4,2.45-5.17a28.9,28.9,0,0,0,1.81-5.51,7.54,7.54,0,0,0,0-2.88,27,27,0,0,0-.7-2.89,53.46,53.46,0,0,0-2.06-5.71l0-.06V355a33.05,33.05,0,0,0,.15-5.27,10.77,10.77,0,0,0-.41-2.59,7.47,7.47,0,0,0-1.29-2.25,8.39,8.39,0,0,0-4.46-2.72,10.28,10.28,0,0,0-5.35.29c-7.25,1.73-14.72,3.21-22.35,4.78l-.14,0-.1-.1-3.55-3.71-.06-.06v-.1q-.45-6.56-.91-13.25l0-.2.19-.06,10.74-3.73.09,0,.1,0a21.32,21.32,0,0,0,9.16,1.72,10.7,10.7,0,0,0,2.76-.59,10.86,10.86,0,0,0,2.5-1.32,8.15,8.15,0,0,0,2-2,2.17,2.17,0,0,0-.05-2.43,2.3,2.3,0,0,0-1-.8l-1.28-.64L242,318.83c-1.71-.82-3.43-1.62-5.15-2.38s-3.45-1.5-5.2-2.14-3.52-1.31-5.3-.86a51.7,51.7,0,0,0-10.28,3.71c-1.64.78-3.27,1.56-4.84,2.43a28.7,28.7,0,0,0-4.45,2.87,2,2,0,0,0-.44.43l-.19.23a2,2,0,0,0,0,.26c-.05.39-.1.86-.14,1.29-.08.88-.16,1.75-.23,2.63q-.21,2.63-.42,5.22c-.51,6.92-1,13.67-1.48,20.21v.08l-.06.07a18,18,0,0,0-4.1,8.33,30.66,30.66,0,0,0-.33,4.6c0,1.54-.09,3.07-.14,4.58q-.27,9.11-.54,17.57c-.35,11.27-.68,21.65-1,31v0l0,0c-7.61,15.07-13.71,27.17-17.93,35.51-2.1,4.16-3.74,7.37-4.85,9.56-.55,1.08-1,1.91-1.27,2.47S173.2,467.37,173.2,467.37Z" style="fill:#6f4439"></path><path d="M236.07,410.9a15.51,15.51,0,0,0,3.41-1.07,12.09,12.09,0,0,0,3.36-2.45,32.11,32.11,0,0,0,3.48-4.34c2.41-3.36,4.27-8,6.1-13.12a26.64,26.64,0,0,0,2-8.25,9.45,9.45,0,0,0-.87-4.3,9.1,9.1,0,0,0-3-3.39,18.19,18.19,0,0,0-8.56-2.82c-2.94-.32-5.84-.38-8.57-.92a33.3,33.3,0,0,1-7.37-2.6,21.26,21.26,0,0,0-6.41-1.92,10.19,10.19,0,0,0-2.89.14,14.31,14.31,0,0,0-2.47.82,17.59,17.59,0,0,0-3.62,2.09,6.57,6.57,0,0,0-1.77,1.93,2.7,2.7,0,0,0-.26.63c0,.15-.07.23-.07.23a.87.87,0,0,1,0-.24,2.12,2.12,0,0,1,.21-.67,6.26,6.26,0,0,1,1.74-2,16.92,16.92,0,0,1,3.63-2.19,14,14,0,0,1,2.52-.89,10.14,10.14,0,0,1,3-.17,21.22,21.22,0,0,1,6.55,1.88,33,33,0,0,0,7.29,2.53c2.68.51,5.56.56,8.54.89a18.45,18.45,0,0,1,8.8,2.9,9.33,9.33,0,0,1,3.13,3.59,9.85,9.85,0,0,1,.92,4.53,26.93,26.93,0,0,1-2,8.41c-1.85,5.15-3.77,9.78-6.25,13.17a31.83,31.83,0,0,1-3.57,4.33,12.12,12.12,0,0,1-3.49,2.43,11.42,11.42,0,0,1-2.56.78l-.7.09A1,1,0,0,1,236.07,410.9Z" style="fill:#6f4439"></path><path d="M236.6,413.38a29.23,29.23,0,0,1-.95-3.36c-.55-2.08-1.38-4.94-2.45-8s-2.14-5.88-2.92-7.9a23.12,23.12,0,0,1-1.17-3.3,23,23,0,0,1,1.51,3.16c.87,2,2,4.74,3.08,7.87a79,79,0,0,1,2.31,8.13c.23,1.06.4,1.92.49,2.51A3,3,0,0,1,236.6,413.38Z" style="fill:#6f4439"></path><path d="M228.25,390.94a1.29,1.29,0,0,0,.47,0,1.69,1.69,0,0,0,.87-1,9.33,9.33,0,0,0,.8-2,4.77,4.77,0,0,0,0-2.7l-.14-.44.43.17a77.45,77.45,0,0,0,7.91,2.49l.88.24.41.11-.29.32a5.08,5.08,0,0,0-1.11,4.8l.06.2-.19.09a9.37,9.37,0,0,0-4.42,4.34,22.53,22.53,0,0,0-.87,2.31,2.2,2.2,0,0,1,.06-.66,7.66,7.66,0,0,1,.55-1.77,9.33,9.33,0,0,1,4.48-4.65l-.12.28a5.5,5.5,0,0,1,1.18-5.3l.12.43-.88-.24a62.7,62.7,0,0,1-7.93-2.59l.29-.26a5.08,5.08,0,0,1-.06,2.93,8.52,8.52,0,0,1-.92,2,1.76,1.76,0,0,1-1.05,1C228.4,391.09,228.24,391,228.25,390.94Z" style="fill:#6f4439"></path><path d="M205.31,361.54a3,3,0,0,1,.47-.51,8.34,8.34,0,0,1,1.61-1.16,16.65,16.65,0,0,1,7-1.79c6.14-.31,14.59-.49,23.95-.77,2.34,0,4.61-.15,6.84-.13a13.58,13.58,0,0,1,6.27,1.36,10.15,10.15,0,0,1,4,4.19,14.48,14.48,0,0,1,1.53,4.82,27.61,27.61,0,0,1-.16,7.28c-.11.85-.22,1.5-.29,1.95a5.5,5.5,0,0,1-.14.68,3,3,0,0,1,0-.69c.06-.51.12-1.16.2-2a29.43,29.43,0,0,0,0-7.2,14.07,14.07,0,0,0-1.54-4.67,9.77,9.77,0,0,0-3.87-4,13.19,13.19,0,0,0-6-1.27c-2.19,0-4.48.1-6.82.15-9.34.27-17.83.4-23.94.61a17,17,0,0,0-7,1.6A12.64,12.64,0,0,0,205.31,361.54Z" style="fill:#6f4439"></path><path d="M241.81,343.28a3.46,3.46,0,0,1,.89-.14,10.68,10.68,0,0,1,2.45,0,14.05,14.05,0,0,1,7.31,3.33,20.13,20.13,0,0,1,4.93,6.38,13.24,13.24,0,0,1,.58,1.26,9.58,9.58,0,0,1,.38,1,3.13,3.13,0,0,1,.23.87c-.09,0-.52-1.17-1.51-2.95a22.22,22.22,0,0,0-4.94-6.15,14.73,14.73,0,0,0-7-3.37C243.1,343.22,241.82,343.4,241.81,343.28Z" style="fill:#6f4439"></path><path d="M203.62,352.67s.21-.26.67-.65a13.37,13.37,0,0,1,2.09-1.45,18.37,18.37,0,0,1,3.47-1.51,32.48,32.48,0,0,1,4.52-1c3.24-.47,6.17-.69,8.27-1s3.4-.57,3.42-.49a2.9,2.9,0,0,1-.88.3c-.58.17-1.42.35-2.48.56-2.1.4-5,.69-8.26,1.16a34.74,34.74,0,0,0-4.45.94,20.37,20.37,0,0,0-3.43,1.37C204.69,351.88,203.68,352.75,203.62,352.67Z" style="fill:#6f4439"></path></g></svg>